PathFileType	4	(X/Y/Z)	C:\Users\Biomechanik\SynologyDrive\AlexP\Athlete_03\Athlete_3_25_03_31\Walking_08\marker_experimental.trc
DataRate	CameraRate	NumFrames	NumMarkers	Units	OrigDataRate	OrigDataStartFrame	OrigNumFrames
200.000000	200.000000	4	53	mm	200.000000	55	222
Frame#	Time	GLAB			RFHD			LFHD			C7			T6			SPINMOL			SPINM2			SPINM3			T12			BELTOL			BELT2			BELT3			SACROL			SACR2			SACR3			LTHOL			LTH2			LTH3			LSHAOL			LSHA2			LSHA3			LHEE			LTOE			LM5			RTHOL			RTH2			RTH3			RSHAOL			RSHA2			RSHA3			RHEE			RTOE			RM5			STRN			XIPH			LACR			LUAOL			LUA2			LUA3			LLAOL			LLA2			LLA3			LWRR			LWRU			RACR			RUAOL			RUA2			RUA3			RLAOL			RLA2			RLA3			RWRR			RWRU			
		X1	Y1	Z1	X2	Y2	Z2	X3	Y3	Z3	X4	Y4	Z4	X5	Y5	Z5	X6	Y6	Z6	X7	Y7	Z7	X8	Y8	Z8	X9	Y9	Z9	X10	Y10	Z10	X11	Y11	Z11	X12	Y12	Z12	X13	Y13	Z13	X14	Y14	Z14	X15	Y15	Z15	X16	Y16	Z16	X17	Y17	Z17	X18	Y18	Z18	X19	Y19	Z19	X20	Y20	Z20	X21	Y21	Z21	X22	Y22	Z22	X23	Y23	Z23	X24	Y24	Z24	X25	Y25	Z25	X26	Y26	Z26	X27	Y27	Z27	X28	Y28	Z28	X29	Y29	Z29	X30	Y30	Z30	X31	Y31	Z31	X32	Y32	Z32	X33	Y33	Z33	X34	Y34	Z34	X35	Y35	Z35	X36	Y36	Z36	X37	Y37	Z37	X38	Y38	Z38	X39	Y39	Z39	X40	Y40	Z40	X41	Y41	Z41	X42	Y42	Z42	X43	Y43	Z43	X44	Y44	Z44	X45	Y45	Z45	X46	Y46	Z46	X47	Y47	Z47	X48	Y48	Z48	X49	Y49	Z49	X50	Y50	Z50	X51	Y51	Z51	X52	Y52	Z52	X53	Y53	Z53	

56	0.275	-103.5984115600587	1611.143432617188	246.6316528320312	-154.0962677001955	1629.683349609375	313.0985717773438	-149.741653442383	1635.688232421875	175.6795196533203	-321.319061279297	1444.048461914062	230.1001739501953	-380.4234924316407	1277.360961914062	224.1152648925781	-389.353485107422	1237.6787109375	203.0175476074218	-391.8662414550782	1229.984741210938	252.9025878906249	-385.5143127441407	1173.374145507812	218.3060913085937	-363.2709960937501	1106.562133789062	218.8810424804687	-396.9223937988282	1071.478149414062	206.7946319580077	-393.4545898437501	1069.231689453125	257.1236267089843	-401.1137084960939	1009.324157714844	228.4286804199218	-385.5072021484376	956.6856079101562	199.1382446289062	-382.0071716308595	954.057373046875	250.4341430664062	-396.2905578613282	895.3636474609375	222.8594207763671	-237.3321990966797	674.0711059570312	11.19044303894039	-262.0635070800782	607.6153564453125	44.9895629882812	-221.6733093261719	616.4611206054688	18.24978446960445	-282.3715515136719	416.2241821289062	6.55249786376948	-356.47607421875	407.6452026367188	34.75656890869134	-322.373291015625	372.1089172363281	23.06322669982904	-486.9535522460938	297.1312866210937	140.9298248291015	-390.9173583984375	99.83125305175778	132.4039916992187	-443.7841796875	122.5355072021484	43.02581024169914	-273.6242065429689	685.0879516601562	393.6092834472656	-210.8541564941407	635.7178344726562	395.6534423828124	-258.2206115722657	626.5300903320312	382.5446166992187	-271.5456542968751	336.1528930664062	375.1338806152343	-238.4948120117188	264.7404479980469	368.6210937499999	-286.2254943847657	277.4583129882812	360.7435607910156	-328.3612670898438	65.36936187744139	251.3799896240234	-113.5989456176758	45.36747741699218	255.1204833984375	-165.8243865966797	37.75802993774413	357.4647216796874	-149.9771423339845	1343.592163085938	222.7616424560547	-135.9125976562501	1198.91748046875	217.4135437011718	-246.0940399169923	1413.145751953125	52.53067398071285	-253.9192199707032	1261.136108398438	-51.21164703369146	-267.7152404785157	1200.560424804688	-72.97129821777348	-221.9780883789063	1203.968505859375	-50.91752243041996	-226.7062683105469	999.1048583984375	-104.7060241699219	-258.5520324707032	928.4213256835938	-89.65790557861332	-212.7027130126953	939.191650390625	-106.3413009643555	-179.2264251708985	840.7481689453125	-112.384391784668	-137.2380981445313	845.8555297851562	-45.54860305786136	-229.5191650390627	1392.829345703125	395.2238159179687	-238.1992797851564	1242.0458984375	493.8225708007812	-212.0705718994142	1180.938354492188	496.1816711425781	-259.9688720703127	1183.682250976562	515.4742431640625	-208.0905914306642	964.53955078125	536.0155029296875	-142.6096954345705	920.223876953125	550.1549682617188	-187.9741058349611	905.1365966796875	534.0279541015625	-136.5399627685548	830.06201171875	535.9126586914062	-105.6150512695314	825.5880126953125	459.9142150878906	
57	0.28	-96.9498443603517	1611.825317382812	246.3456878662109	-147.4282379150392	1630.468505859375	312.809814453125	-143.082733154297	1636.318237304688	175.3705596923828	-314.7193908691408	1444.743774414062	230.1058044433593	-373.768035888672	1277.991455078125	224.4308471679687	-382.684051513672	1238.310546875	203.3880767822265	-385.1367492675782	1230.63525390625	253.2791442871093	-378.8068847656251	1174.011840820312	218.696548461914	-356.5879211425782	1107.243896484375	219.2566375732421	-390.3872680664064	1072.303466796875	207.1441955566405	-386.9007568359376	1070.027099609375	257.4740600585937	-394.5083923339845	1010.132751464844	228.7407226562499	-378.7605590820314	957.6283569335938	198.8558197021484	-375.5307617187501	954.6854858398438	250.1573638916015	-389.8205566406251	896.1915283203125	222.150665283203	-227.1445770263672	675.3907470703125	10.84542846679683	-251.7299499511719	608.5097045898438	43.72225189208979	-210.8972473144532	617.9124145507812	17.77341842651363	-269.0990905761719	415.6451721191406	6.795211791992138	-343.2698364257812	405.8501586914062	34.34194946289056	-308.3606567382812	370.8917236328125	23.32390594482416	-472.6275939941406	292.4478454589843	141.4294891357421	-369.8830261230469	98.54742431640622	132.3092803955078	-423.7052917480469	119.5917816162109	43.08192062377922	-270.3722534179689	686.1680908203125	393.4510803222656	-208.2595520019532	636.009765625	395.9071350097656	-255.6426544189454	627.4427490234375	382.3994445800781	-271.2843627929688	336.7654113769531	374.7602539062499	-238.4412841796876	265.2173156738281	368.6390380859374	-286.0581359863282	278.1069641113281	360.3392639160156	-328.1318664550782	66.00971221923827	251.0739440917968	-113.5612411499024	45.31153869628906	255.140640258789	-165.7815093994141	37.75304794311523	357.4571838378906	-143.3883514404298	1344.436279296875	222.7011260986328	-129.2469482421876	1199.765625	217.5230255126953	-239.672592163086	1413.753051757812	52.46884155273433	-248.2405700683595	1261.581420898438	-51.18896102905278	-262.4379882812501	1201.024780273438	-72.71633911132817	-216.4936981201173	1204.293701171875	-50.924976348877	-222.9856567382813	999.4996337890625	-104.5010604858399	-255.6524658203125	929.16845703125	-89.44556427001957	-209.7198791503907	939.379150390625	-106.27734375	-177.5285949707032	840.5765991210938	-112.6435241699219	-135.4153747558594	844.8931884765625	-45.76679229736331	-222.771697998047	1393.942993164062	395.1640014648437	-230.7690887451174	1243.430053710938	494.1551818847656	-204.3991851806642	1182.40966796875	496.5539550781249	-252.2592163085939	1185.010131835938	515.9768676757812	-198.5945587158205	966.0676879882812	536.4656982421875	-132.5142822265627	922.5482788085938	550.1809692382812	-177.7458343505861	906.9292602539062	534.2313842773438	-125.3800125122072	832.5072631835938	535.6278076171875	-94.56930541992202	828.6964111328125	459.5620727539062	
58	0.285	-90.30431365966811	1612.453125	246.0263977050781	-140.760452270508	1631.203491210938	312.4882507324219	-136.4290924072267	1636.890014648438	175.0285339355468	-308.1191406250002	1445.383178710938	230.0876312255859	-367.1116943359376	1278.5712890625	224.7129974365234	-376.0132751464845	1238.894653320312	203.720962524414	-378.4121704101564	1231.234130859375	253.6169433593749	-372.1039428710939	1174.60009765625	219.0445709228515	-349.914764404297	1107.875732421875	219.5868988037109	-383.8571777343751	1073.071655273438	207.4023742675781	-380.3777160644532	1070.762084960938	257.7353515624999	-387.917938232422	1010.883117675781	228.9542083740234	-372.029022216797	958.509765625	198.5451202392578	-369.0740661621095	955.27587890625	249.8516845703124	-383.3662414550782	896.9703979492188	221.4393157958984	-217.0663146972657	676.7175903320312	10.47099781036373	-241.5161895751953	609.3983764648438	42.37529373168941	-200.2427825927735	619.3605346679688	17.26789665222164	-255.9306182861328	414.9036254882812	7.071220397949172	-330.1199951171875	403.7990112304688	33.98374557495111	-294.3851623535156	369.471435546875	23.60748672485346	-458.1206665039062	287.3836669921875	141.906265258789	-348.6702575683594	97.16691589355466	132.1754608154296	-403.3913879394531	116.4981536865234	43.09531021118157	-267.1002502441407	687.2212524414062	393.2871093749999	-205.6575622558595	636.2935791015625	396.1666870117187	-253.0385742187501	628.3440551757812	382.2552490234374	-270.9995422363282	337.3935852050781	374.3774719238281	-238.3604583740235	265.710693359375	368.6432189941406	-285.8637695312501	278.7692565917969	359.9259948730468	-327.8934326171876	66.67251586914061	250.7621154785156	-113.5311813354493	45.24823760986327	255.1551361083984	-165.7335510253907	37.75158691406249	357.4422607421874	-136.7999877929689	1345.232299804688	222.620849609375	-122.5822982788087	1200.558715820312	217.6153869628906	-233.2476043701173	1414.311889648438	52.38814926147457	-242.5935821533204	1261.991333007812	-51.19591522216801	-257.1979370117188	1201.453979492188	-72.48322296142582	-211.0386505126954	1204.581298828125	-50.96954727172855	-219.2851257324219	999.869873046875	-104.3259506225586	-252.7384490966797	929.8932495117188	-89.24199676513676	-206.7392120361328	939.5576171875	-106.2353973388672	-175.8034210205078	840.4189453125	-112.9096755981446	-133.5622558593751	843.9766235351562	-46.00634384155276	-216.0279541015627	1395.010375976562	395.0805664062499	-223.3582305908205	1244.779663085938	494.4688110351562	-196.7556610107424	1183.845947265625	496.9152221679687	-244.5770874023439	1186.309814453125	516.46240234375	-189.1417846679689	967.5740966796875	536.8937377929688	-122.4750061035158	924.86865234375	550.2158203125	-167.5515747070314	908.7167358398438	534.4068603515625	-114.2519302368166	834.9719848632812	535.3247680664062	-83.52807617187514	831.84033203125	459.2082214355469	
59	0.29	-83.66050720214858	1613.024169921875	245.6748352050781	-134.0916900634767	1631.885375976562	312.134765625	-129.7796630859376	1637.401245117188	174.6544952392578	-301.5164489746095	1445.964599609375	230.0453491210937	-360.453826904297	1279.098999023438	224.9607849121093	-369.3402404785157	1239.429077148438	204.0146179199218	-371.6936035156251	1231.780029296875	253.9144287109374	-365.4056396484376	1175.137451171875	219.349136352539	-343.2516174316407	1108.45556640625	219.8708801269531	-377.3308715820314	1073.781005859375	207.5705108642578	-373.8848571777345	1071.435546875	257.9089355468749	-381.3425903320314	1011.573547363281	229.0708007812499	-365.3126220703126	959.3265991210938	198.2100677490234	-362.6363220214845	955.8294677734375	249.5214538574218	-376.9241638183595	897.697998046875	220.7346038818359	-207.1079711914063	678.0458374023438	10.07217884063717	-231.42041015625	610.2727661132812	40.95904541015621	-189.714096069336	620.7976684570312	16.73938369750973	-242.8670959472657	414.0135192871094	7.385873317718461	-317.0166320800781	401.5074768066406	33.70624542236322	-280.4467468261719	367.864013671875	23.91609764099116	-443.4180297851562	281.9578857421875	142.3503265380859	-327.2979125976562	95.70628356933592	132.0037384033203	-382.851318359375	113.2731857299804	43.06354141235344	-263.7989501953126	688.240966796875	393.1217346191406	-203.0346221923829	636.56494140625	396.4305114746093	-250.3981018066407	629.2277221679688	382.1154174804687	-270.6714477539063	338.03173828125	373.9910888671874	-238.2347564697266	266.2153930664062	368.6251525878906	-285.6276550292969	279.4404907226562	359.5108642578124	-327.6475830078126	67.3555450439453	250.4463806152343	-113.5093383789063	45.17836761474609	255.1628875732422	-165.6808471679688	37.75386047363281	357.4199829101562	-130.2100677490236	1345.9765625	222.5198669433593	-115.91805267334	1201.29150390625	217.6912384033203	-226.8181762695313	1414.818481445312	52.28862762451168	-236.9754943847657	1262.36279296875	-51.23215866088871	-251.9874267578126	1201.844116210938	-72.27622985839848	-205.6114501953126	1204.828491210938	-51.04978942871097	-215.6014556884766	1000.210754394531	-104.1816558837891	-249.8067016601563	930.5897827148438	-89.04779052734379	-203.7575073242188	939.722412109375	-106.2158889770508	-174.0463104248047	840.2687377929688	-113.1834487915039	-131.6720275878907	843.0990600585938	-46.26925277709963	-209.2865142822267	1396.0263671875	394.9736938476562	-215.9676055908205	1246.088623046875	494.7635498046874	-189.1402893066408	1185.242065429688	497.2664794921874	-236.9234924316408	1187.575561523438	516.9301147460938	-179.7301635742189	969.0538330078125	537.3007202148438	-112.489700317383	927.1786499023438	550.2581787109375	-157.3909759521486	910.4944458007812	534.555419921875	-103.1571731567384	837.4490966796875	535.0029907226562	-72.49433898925795	835.014404296875	458.8519592285156	
